PathFileType	4	(X/Y/Z)	C:/Users/cpontonn/Documents/TRAVAIL - COURS/FORMATION DOCTORALE/COURS AUTOMNE/TP OPENSIM/ESCRIME DATA/C3Ds/Trial011.trc	
DataRate	CameraRate	NumFrames	NumMarkers	Units	OrigDataRate	OrigDataStartFrame	OrigNumFrames	
250.00	250.00	4	54	mm	250.00	494	790	
Frame#	Time	Sword:Root4			Screen:LBot			Screen:RBot			Screen:LTop			Screen:RTop			Screen:MTop			Sword:Root1			Sword:Root2			Sword:Root3			Sword:Root5			Sword:Root6			Sword:STip			LFHD			LBHD			RFHD			RBHD			C7			T10			CLAV			STRN			LSHO			LRAD			LHUM			LWRB			LWRA			RSHO			RBAC			RUPA			RRAD			RHUM			RWRB			RWRA			RCAR			LFWT			LBWT			RFWT			RBWT			LKNE			LKNI			LANE			LANI			LHEE			LTAR			LTARI			LTOE			RTHI			RKNE			RKNI			RANE			RANI			RHEE			RTAR			RTARI			RTOE			
		X1	Y1	Z1	X2	Y2	Z2	X3	Y3	Z3	X4	Y4	Z4	X5	Y5	Z5	X6	Y6	Z6	X7	Y7	Z7	X8	Y8	Z8	X9	Y9	Z9	X10	Y10	Z10	X11	Y11	Z11	X12	Y12	Z12	X13	Y13	Z13	X14	Y14	Z14	X15	Y15	Z15	X16	Y16	Z16	X17	Y17	Z17	X18	Y18	Z18	X19	Y19	Z19	X20	Y20	Z20	X21	Y21	Z21	X22	Y22	Z22	X23	Y23	Z23	X24	Y24	Z24	X25	Y25	Z25	X26	Y26	Z26	X27	Y27	Z27	X28	Y28	Z28	X29	Y29	Z29	X30	Y30	Z30	X31	Y31	Z31	X32	Y32	Z32	X33	Y33	Z33	X34	Y34	Z34	X35	Y35	Z35	X36	Y36	Z36	X37	Y37	Z37	X38	Y38	Z38	X39	Y39	Z39	X40	Y40	Z40	X41	Y41	Z41	X42	Y42	Z42	X43	Y43	Z43	X44	Y44	Z44	X45	Y45	Z45	X46	Y46	Z46	X47	Y47	Z47	X48	Y48	Z48	X49	Y49	Z49	X50	Y50	Z50	X51	Y51	Z51	X52	Y52	Z52	X53	Y53	Z53	X54	Y54	Z54	

494	1.972	357.59808	2699.72949	963.30353	-1670.77673	3505.91138	29.64093	2281.14795	3509.17896	32.13331	-1652.54517	3518.17114	2206.19824	2272.65796	3512.44556	2215.29761	-472.37247	3518.75562	2201.56641	412.64142	2735.86548	945.50507	503.97800	3064.45581	982.66742	448.99182	2650.77661	892.06909	307.49747	2665.80664	941.64819	373.06775	2697.29688	880.81909	540.79108	3506.87793	825.16003	157.12686	2159.26147	1233.12170	124.15660	2064.69189	1209.11475	365.37442	2116.78931	1271.77380	354.75925	1999.68054	1237.13049	181.86893	1957.85461	1112.23242	128.50487	1795.69604	906.90955	321.11780	2006.62183	1000.53052	350.99985	1945.33472	851.40991	140.44011	2092.44116	1022.39075	216.25636	2331.19849	904.80322	265.90506	2299.14331	852.98981	324.64441	2574.62915	855.16058	364.81104	2558.88281	945.82837	315.26801	1837.84021	1149.27319	179.67435	1794.01538	1079.44849	353.11456	1645.61194	1070.91064	291.88208	1537.76746	1068.20898	259.54462	1552.70825	981.75641	558.01996	1495.09363	995.39368	551.95758	1590.40601	995.92700	624.70801	1557.53308	1027.00464	236.93889	1898.04590	639.96906	100.52298	1723.98669	732.24585	357.30405	1699.36108	672.17999	148.83041	1667.18762	744.63544	157.27673	2204.89575	493.55682	301.50241	2188.66431	467.49063	167.82639	2144.65894	101.06483	262.79587	2128.52197	114.45181	195.70021	2060.96387	62.44135	186.45535	2279.67505	37.23276	291.26083	2249.55029	51.09382	280.37469	2329.73950	52.16639	372.79980	1428.62720	368.31818	308.67950	1326.17151	381.42380	286.20465	1391.92322	267.82712	181.42015	1005.75696	123.43768	222.12621	1054.58850	45.80209	131.95723	1024.16296	57.45458	306.91714	897.99713	98.53128	336.19373	972.95679	22.69968	396.08823	932.21844	53.92397 
495	1.976	357.66550	2699.67358	962.51093	-1670.74084	3505.90723	29.64892	2281.45386	3509.27832	32.05368	-1652.52710	3518.08252	2206.16943	2272.69800	3512.43677	2215.30566	-472.24271	3518.80664	2201.35571	412.67691	2735.80884	944.68536	503.95023	3064.33838	982.01434	449.04044	2650.70679	891.25214	307.54236	2665.72314	940.98602	373.00467	2697.22729	880.08380	540.77307	3506.93921	825.08551	157.14929	2158.94702	1232.70032	124.21131	2064.37817	1208.83728	365.47064	2116.62842	1271.45837	354.78006	1999.46875	1236.92432	181.89209	1957.70313	1111.65369	128.41808	1795.28479	906.64923	321.13205	2006.04419	1000.29095	351.00876	1944.67798	851.13721	140.73906	2092.56396	1022.06476	216.28319	2331.01611	904.36987	265.47046	2299.36035	852.59473	324.76544	2574.48950	854.52905	364.90646	2558.79175	945.16449	315.09091	1837.35437	1149.11560	179.59566	1793.53870	1079.27954	353.20996	1644.84998	1070.55884	292.03433	1537.23230	1067.98645	259.68042	1552.24854	981.50848	558.10260	1494.49585	995.25476	551.97119	1589.85864	995.70551	624.86609	1556.99084	1026.84106	236.74438	1897.53931	639.66852	100.39597	1723.42322	731.89911	357.17764	1698.91907	671.99866	148.65363	1666.67810	744.28094	157.45406	2204.59717	493.20935	301.51999	2188.45825	467.35580	168.00012	2144.60107	101.00140	262.95374	2128.44653	114.36091	195.77664	2060.93457	62.36300	186.48982	2279.67407	37.24894	291.30743	2249.55347	51.05628	280.39139	2329.75098	52.16402	373.11627	1429.16931	367.53778	309.54993	1326.25610	380.78525	286.39554	1392.06287	267.50064	181.49295	1005.47150	123.33336	222.18407	1054.39844	45.72663	131.99515	1023.96893	57.48922	306.78574	897.42969	98.34826	336.08231	972.71741	22.83196	395.87830	931.65253	53.81997 
496	1.980	357.70590	2699.50439	961.77557	-1670.73157	3506.09399	29.61978	2281.51343	3509.24536	31.95740	-1652.51184	3517.97754	2206.13721	2272.73047	3512.42896	2215.30444	-472.27432	3518.81616	2201.38184	412.73029	2735.63232	943.89313	503.32785	3064.26343	981.39575	448.99161	2650.62354	890.40985	307.60184	2665.54810	940.27698	372.98874	2697.10986	879.32013	540.85541	3506.94922	825.06427	157.19638	2158.59692	1232.36951	124.24889	2063.95703	1208.61328	365.46790	2116.35889	1271.23096	354.80020	1999.12024	1236.73230	181.79065	1957.49597	1111.25293	128.32854	1794.83899	906.43500	321.19540	2005.44348	1000.08453	351.08994	1943.93396	850.95306	141.03008	2092.65942	1021.83624	216.36559	2330.82666	903.94531	265.49054	2299.56323	852.02606	324.66046	2574.31421	853.89990	365.07608	2558.64795	944.39355	314.87479	1836.80505	1148.96021	179.46274	1793.02795	1079.10913	353.26706	1644.15479	1070.14563	292.29025	1536.61157	1067.70801	259.83826	1551.66821	981.21576	558.14777	1493.93250	995.07642	552.08380	1589.36316	995.57831	624.98706	1556.39905	1026.67847	236.57582	1896.94434	639.46179	100.30477	1722.78186	731.57446	356.59299	1698.42932	671.73071	148.41570	1666.07471	743.89191	157.59361	2204.19873	492.91382	301.54526	2188.13647	467.19025	168.12749	2144.53906	100.94115	263.08627	2128.35498	114.21998	195.83246	2060.91455	62.28178	186.49664	2279.67236	37.27718	291.34409	2249.55469	51.00454	280.43301	2329.76050	52.15600	373.43475	1429.58728	366.79276	310.47977	1326.18652	380.16837	286.78778	1392.14111	267.16040	181.50633	1005.20068	123.20180	222.18814	1054.24292	45.65312	132.01523	1023.76758	57.51108	306.65558	896.91571	98.16649	336.07596	972.41022	22.77187	395.83881	931.20959	53.70538 
497	1.984	357.77921	2699.21167	961.17664	-1670.77905	3506.19727	29.60028	2281.43140	3509.12085	31.96900	-1652.48389	3517.97559	2206.17529	2272.71387	3512.40454	2215.28296	-472.27734	3518.88379	2201.56714	412.65573	2735.40259	943.12402	503.10501	3064.05200	980.75232	448.96210	2650.46533	889.44537	307.61331	2665.30420	939.64545	372.87814	2696.94678	878.59442	540.81915	3507.03125	825.05286	157.23074	2158.16382	1232.13452	124.30033	2063.48413	1208.44763	365.51239	2116.01318	1271.00073	354.81448	1998.68188	1236.63623	181.41408	1957.21667	1111.11877	128.23622	1794.36658	906.24097	321.31354	2004.80725	999.88666	351.12714	1943.09778	850.78534	141.41689	2092.73853	1021.63367	216.42947	2330.61279	903.52448	265.67706	2299.71484	851.49091	324.52768	2574.12231	853.19629	365.26181	2558.46533	943.54071	314.61084	1836.17017	1148.83276	179.20590	1792.56433	1078.92810	353.36697	1643.62756	1069.68835	292.52014	1535.90002	1067.46313	260.02380	1550.96191	980.92047	558.27692	1493.27673	994.95837	552.29071	1588.78638	995.44946	625.08344	1555.77905	1026.51929	236.66405	1896.39502	639.50391	100.21306	1722.10730	731.22559	356.93649	1697.95264	671.71918	148.17319	1665.47534	743.52753	157.73404	2203.75415	492.67242	301.57001	2187.67847	467.03067	168.20970	2144.49023	100.95328	263.18402	2128.27734	114.12552	195.88306	2060.88013	62.21237	186.54298	2279.69751	37.27860	291.34576	2249.56372	50.97086	280.41779	2329.75879	52.10693	373.67923	1429.95544	366.10895	311.41351	1326.08496	379.59485	287.28577	1392.33325	266.97076	181.56340	1004.96930	123.09297	222.21132	1054.07837	45.57822	131.95525	1023.54449	57.52986	306.58038	896.35583	97.94640	335.98148	972.24713	22.89452	395.73309	930.84821	53.66368 
